<svg xmlns="http://www.w3.org/2000/svg" style="color: gray" data-name="Layer 1" viewBox="0 0 100 125" x="0px" y="0px"><title>House</title><path d="M81,80H76V40a1,1,0,0,0-1-1H69V35a1,1,0,0,0-1-1H56V19a1,1,0,0,0-1-1H25a1,1,0,0,0-1,1V80H19a1,1,0,0,0,0,2H81a1,1,0,0,0,0-2ZM70,48v1H65V48Zm4,0v1H72V48ZM65,70V69h5v1Zm-4,0V69h2v1ZM74,51v2H61V51ZM61,67V65H74v2Zm9-5v1H65V62Zm-7,1H61V62h2Zm9,0V62h2v1ZM61,60V58H74v2Zm9-5v1H65V55Zm-7,1H61V55h2Zm9,0V55h2v1Zm0,13h2v1H72ZM63,49H61V48h2ZM61,76h2v4H61Zm4,0h5v4H65Zm-4-2V72H74v2ZM74,46H61V41H74ZM67,36v3H56V36ZM47,62v1H34V62Zm7,0v1H49V62ZM34,70V69H47v1Zm-8,0V69h6v1Zm28-5v2H26V65Zm-5,4h5v1H49ZM32,63H26V62h6Zm-6,9H54v2H26Zm21,4v4H34V76Zm2,0h5v4H49Zm5-41V60H26V57H44a1,1,0,0,0,1-1V20h9ZM26,20H43V55H26Zm0,56h6v4H26Zm30,4V41h3V80Zm16,0V76h2v4Z"/><path d="M39,27a1,1,0,0,0,0-2H29a1,1,0,0,0,0,2h4v2H29a1,1,0,0,0,0,2H39a1,1,0,0,0,0-2H35V27Z"/><path d="M39,36a1,1,0,0,0,0-2H29a1,1,0,0,0,0,2h4v2H29a1,1,0,0,0,0,2H39a1,1,0,0,0,0-2H35V36Z"/><path d="M39,45a1,1,0,0,0,0-2H29a1,1,0,0,0,0,2h4v2H29a1,1,0,0,0,0,2H39a1,1,0,0,0,0-2H35V45Z"/><path d="M48,28h3a1,1,0,0,0,1-1V23a1,1,0,0,0-1-1H48a1,1,0,0,0-1,1v4A1,1,0,0,0,48,28Zm1-4h1v2H49Z"/><path d="M48,36h3a1,1,0,0,0,1-1V31a1,1,0,0,0-1-1H48a1,1,0,0,0-1,1v4A1,1,0,0,0,48,36Zm1-4h1v2H49Z"/><path d="M48,44h3a1,1,0,0,0,1-1V39a1,1,0,0,0-1-1H48a1,1,0,0,0-1,1v4A1,1,0,0,0,48,44Zm1-4h1v2H49Z"/><path d="M48,52h3a1,1,0,0,0,1-1V47a1,1,0,0,0-1-1H48a1,1,0,0,0-1,1v4A1,1,0,0,0,48,52Zm1-4h1v2H49Z"/></svg>
