<svg xmlns="http://www.w3.org/2000/svg" data-name="Layer 1" viewBox="0 0 100 125" x="0px" y="0px"><title>House</title><path d="M81,80H76V47c0-.03-.014-.055-.017-.084a3.845,3.845,0,0,0-.324-3.716A3.627,3.627,0,0,0,74,41.595a4,4,0,0,0-5.032,1.535l-.12-.04A4,4,0,0,0,63.826,45.7c-.03.1-.043.2-.065.3H62V33H75a1,1,0,0,0,1-1V19a1,1,0,0,0-1-1H47a1,1,0,0,0-1,1V33H22a1,1,0,0,0,0,2H46v1H25a1,1,0,0,0-1,1V80H19a1,1,0,0,0,0,2H81a1,1,0,0,0,0-2ZM66.717,45.132a1.951,1.951,0,0,1,2.134.193,1,1,0,0,0,1.578-.556c.006-.024.017-.1.021-.125a2,2,0,0,1,2.733-1.222,1.63,1.63,0,0,1,.717.731c.528.971.475,1.483.311,1.846H65.864A1.977,1.977,0,0,1,66.717,45.132ZM26,38H46V80H44V41a1,1,0,0,0-1-1H34a1,1,0,0,0-1,1v5H31V45a1,1,0,0,0-2,0v2a1,1,0,0,0,1,1h3v5H31V52a1,1,0,0,0-2,0v2a1,1,0,0,0,1,1h3v5H31V59a1,1,0,0,0-2,0v2a1,1,0,0,0,1,1h3v5H31V66a1,1,0,0,0-2,0v2a1,1,0,0,0,1,1h3v5H31V73a1,1,0,0,0-2,0v2a1,1,0,0,0,1,1h3v4H26Zm9,42V76h4a1,1,0,0,0,0-2H35V69h4a1,1,0,0,0,0-2H35V62h4a1,1,0,0,0,0-2H35V55h4a1,1,0,0,0,0-2H35V48h4a1,1,0,0,0,0-2H35V42h7V80Zm13,0V20H74V31H61a1,1,0,0,0-1,1V47a1,1,0,0,0,1,1H74V80Z"/><path d="M69,65a1,1,0,0,0-1,1v1H54V66a1,1,0,0,0-2,0v2a1,1,0,0,0,1,1H69a1,1,0,0,0,1-1V66A1,1,0,0,0,69,65Z"/><path d="M69,58a1,1,0,0,0-1,1v1H54V59a1,1,0,0,0-2,0v2a1,1,0,0,0,1,1H69a1,1,0,0,0,1-1V59A1,1,0,0,0,69,58Z"/><path d="M69,51a1,1,0,0,0-1,1v1H54V52a1,1,0,0,0-2,0v2a1,1,0,0,0,1,1H69a1,1,0,0,0,1-1V52A1,1,0,0,0,69,51Z"/><path d="M53,48h4a1,1,0,0,0,0-2H54V45a1,1,0,0,0-2,0v2A1,1,0,0,0,53,48Z"/><path d="M53,41h4a1,1,0,0,0,0-2H54V38a1,1,0,0,0-2,0v2A1,1,0,0,0,53,41Z"/><path d="M53,34h4a1,1,0,0,0,0-2H54V31a1,1,0,0,0-2,0v2A1,1,0,0,0,53,34Z"/><path d="M53,27H69a1,1,0,0,0,1-1V24a1,1,0,0,0-2,0v1H54V24a1,1,0,0,0-2,0v2A1,1,0,0,0,53,27Z"/><path d="M69,72a1,1,0,0,0-1,1v1H54V73a1,1,0,0,0-2,0v2a1,1,0,0,0,1,1H69a1,1,0,0,0,1-1V73A1,1,0,0,0,69,72Z"/><path d="M44,17H78a1,1,0,0,0,0-2H44a1,1,0,0,0,0,2Z"/></svg>
