<svg xmlns="http://www.w3.org/2000/svg" xmlns:xlink="http://www.w3.org/1999/xlink" version="1.1" x="0px" y="0px" viewBox="0 0 24 30" style="enable-background:new 0 0 24 24;" xml:space="preserve"><g><path d="M20.123,13.657h-0.641v-1.183c0-0.221-0.18-0.4-0.4-0.4h-1.15v-0.603c0-0.221-0.18-0.4-0.4-0.4h-1.796V6.99   h1.046c0.221,0,0.4-0.179,0.4-0.4V5.145c0-0.221-0.18-0.4-0.4-0.4h-1.086c-0.159-1.466-1.158-2.67-2.514-3.126V0.557   c0-0.221-0.179-0.4-0.4-0.4h-1.562c-0.221,0-0.4,0.179-0.4,0.4v1.062c-1.356,0.456-2.355,1.66-2.514,3.126H7.219   c-0.221,0-0.4,0.179-0.4,0.4V6.59c0,0.221,0.179,0.4,0.4,0.4h1.046v4.082H6.469c-0.221,0-0.4,0.179-0.4,0.4v0.603H4.917   c-0.221,0-0.4,0.179-0.4,0.4v1.183H3.877c-0.221,0-0.4,0.18-0.4,0.4s0.179,0.4,0.4,0.4h0.641v1.183c0,0.221,0.179,0.4,0.4,0.4   h1.151v0.603c0,0.221,0.179,0.4,0.4,0.4h1.796v4.081H6.006c-0.221,0-0.4,0.18-0.4,0.4v1.917c0,0.221,0.179,0.4,0.4,0.4h11.988   c0.221,0,0.4-0.18,0.4-0.4v-1.917c0-0.221-0.18-0.4-0.4-0.4h-2.259v-4.081h1.796c0.221,0,0.4-0.18,0.4-0.4v-0.603h1.15   c0.221,0,0.4-0.18,0.4-0.4v-1.183h0.641c0.221,0,0.4-0.18,0.4-0.4S20.344,13.657,20.123,13.657z M11.619,0.957h0.762v0.491   C12.254,1.435,12.13,1.41,12,1.41s-0.254,0.025-0.381,0.039V0.957z M12,2.209c1.481,0,2.697,1.107,2.894,2.536H9.105   C9.302,3.317,10.518,2.209,12,2.209z M7.619,5.545h8.762V6.19h-1.046h-6.67H7.619V5.545z M17.594,23.042H6.406v-1.116h2.259h6.67   h2.259V23.042z M18.682,15.24h-1.146c-0.002,0-0.003-0.001-0.005-0.001c-0.221,0-0.4,0.18-0.4,0.4v0.604h-1.796   c-0.221,0-0.4,0.18-0.4,0.4v4.481h-5.87v-4.481c0-0.221-0.179-0.4-0.4-0.4H6.869V15.64c0-0.221-0.179-0.4-0.4-0.4   c-0.002,0-0.003,0.001-0.005,0.001H5.317v-2.366h1.149c0.001,0,0.002,0,0.002,0c0.221,0,0.4-0.179,0.4-0.4v-0.603h1.796   c0.221,0,0.4-0.179,0.4-0.4V6.99h5.87v4.481c0,0.221,0.18,0.4,0.4,0.4h1.796v0.604c0,0.221,0.18,0.4,0.4,0.4   c0.001,0,0.002,0,0.002,0h1.148V15.24z"/><path d="M12,11.586c-1.363,0-2.471,1.108-2.471,2.471c0,1.362,1.108,2.472,2.471,2.472   c1.362,0,2.472-1.109,2.472-2.472C14.472,12.695,13.362,11.586,12,11.586z M12,15.729c-0.921,0-1.671-0.749-1.671-1.671   s0.75-1.671,1.671-1.671s1.671,0.75,1.671,1.671S12.921,15.729,12,15.729z"/></g></svg>
