<svg xmlns:dc="http://purl.org/dc/elements/1.1/" xmlns:cc="http://creativecommons.org/ns#" xmlns:rdf="http://www.w3.org/1999/02/22-rdf-syntax-ns#" xmlns:svg="http://www.w3.org/2000/svg" xmlns="http://www.w3.org/2000/svg" xmlns:sodipodi="http://sodipodi.sourceforge.net/DTD/sodipodi-0.dtd" xmlns:inkscape="http://www.inkscape.org/namespaces/inkscape" version="1.1" x="0px" y="0px" viewBox="0 0 100 125"><g transform="translate(0,-952.36218)"><path style="text-indent:0;text-transform:none;direction:ltr;block-progression:tb;baseline-shift:baseline;color:#000000;enable-background:accumulate;" d="m 50,960.36219 c -0.15868,0 -0.31443,0.012 -0.46875,0.0312 -9.28214,0.23736 -16.80822,7.37255 -17.59375,16.46875 l -1.09375,0 c -1.0557,0 -1.96875,0.87792 -1.96875,1.9375 l 0,3.15625 c 0,1.05958 0.91307,1.9375 1.96875,1.9375 l 1,0 0,5.96875 -10.53125,0 c -1.26898,0 -2.34375,1.07477 -2.34375,2.34375 l 0,2.84375 c -2.27068,0.46312 -4,2.44164 -4,4.84375 0,2.40211 1.72932,4.43721 4,4.90631 l 0,2.8125 c 0,1.2689 1.07477,2.3125 2.34375,2.3125 l 10.53125,0 0,24.625 -4.9375,0 c -1.05659,0 -1.9375,0.8809 -1.9375,1.9375 l 0,5.9062 c 0,1.0566 0.88091,1.9688 1.9375,1.9688 l 46.21875,0 c 1.05659,0 1.9375,-0.9122 1.9375,-1.9688 l 0,-5.9062 c 0,-1.0566 -0.88091,-1.9375 -1.9375,-1.9375 l -4.96875,0 0,-24.625 10.5625,0 c 1.26898,0 2.3125,-1.0436 2.3125,-2.3125 l 0,-2.8125 c 2.27068,-0.4691 4,-2.5042 4,-4.90631 0,-2.40211 -1.72932,-4.38063 -4,-4.84375 l 0,-2.84375 c 0,-1.26898 -1.04352,-2.34375 -2.3125,-2.34375 l -10.5625,0 0,-5.96875 1.03125,0 c 1.05568,0 1.9375,-0.87776 1.9375,-1.9375 l 0,-3.15625 c 0,-1.05974 -0.8818,-1.9375 -1.9375,-1.9375 l -1.125,0 c -0.78554,-9.09621 -8.31177,-16.23139 -17.59375,-16.46875 -0.15622,-0.008 -0.31101,-0.0312 -0.46875,-0.0312 z m -1.15625,2.75 0,13.75 -4.0625,0 c 0.06487,-4.05179 0.7569,-7.71433 1.78125,-10.28125 0.53857,-1.34959 1.16241,-2.37752 1.78125,-3.03125 0.17538,-0.18526 0.33635,-0.3133 0.5,-0.4375 z m 2.3125,0 c 0.16366,0.1242 0.32463,0.25224 0.5,0.4375 0.61882,0.65372 1.2427,1.68166 1.78125,3.03125 1.02432,2.56692 1.71638,6.22946 1.78125,10.28125 l -4.0625,0 0,-13.75 z m -6.21875,1.46875 c -0.1803,0.37115 -0.33716,0.74818 -0.5,1.15625 -1.16918,2.92984 -1.90264,6.83095 -1.96875,11.125 l -2.8125,0 c 0.11849,-3.94606 1.30409,-7.50611 3.125,-10.03125 0.64769,-0.89819 1.38275,-1.62541 2.15625,-2.25 z m 10.125,0 c 0.77351,0.62459 1.50857,1.35181 2.15625,2.25 1.82089,2.52514 3.00651,6.08519 3.125,10.03125 l -2.8125,0 c -0.06343,-4.29405 -0.76836,-8.19516 -1.9375,-11.125 -0.16284,-0.40806 -0.34771,-0.7851 -0.53125,-1.15625 z m -14.125,0.90625 c -2.14278,2.97149 -3.44629,6.97614 -3.5625,11.375 l -3.125,0 c 0.46688,-4.71755 3.00107,-8.80574 6.6875,-11.375 z m 18.15625,0 c 3.67502,2.57018 6.19024,6.66641 6.65625,11.375 l -3.09375,0 c -0.11621,-4.39886 -1.41974,-8.40351 -3.5625,-11.375 z m -27.90625,13.65625 37.625,0 0,2.46875 -37.625,0 0,-2.46875 z m 2.96875,4.75 31.6875,0 0,50.65626 -31.6875,0 0,-50.65626 z M 50,987.73719 c -6.74569,0 -12.25,5.46633 -12.25,12.1875 0,6.72121 5.50431,12.18751 12.25,12.18751 6.7457,0 12.25,-5.4663 12.25,-12.18751 0,-6.72117 -5.5043,-12.1875 -12.25,-12.1875 z m 0,2.28125 c 5.50984,0 9.9375,4.43529 9.9375,9.90625 0,5.47101 -4.42766,9.87501 -9.9375,9.87501 -5.50983,0 -9.9375,-4.404 -9.9375,-9.87501 0,-5.47096 4.42767,-9.90625 9.9375,-9.90625 z m -28.6875,2.15625 10.53125,0 0,15.46881 -10.53125,0 c -0.0346,0 -0.03125,0 -0.03125,-0.031 l 0,-15.40632 c 0,-0.0346 -0.0029,-0.0312 0.03125,-0.0312 z m 46.84375,0 10.5625,0 c 0.0346,0 0.03125,-0.003 0.03125,0.0312 l 0,15.40631 c 0,0.035 0.0029,0.031 -0.03125,0.031 l -10.5625,0 0,-15.46881 z M 50,994.36219 c -3.0524,0 -5.53125,2.5155 -5.53125,5.5625 0,3.04701 2.47885,5.53131 5.53125,5.53131 3.0524,0 5.5625,-2.4843 5.5625,-5.53131 0,-3.047 -2.5101,-5.5625 -5.5625,-5.5625 z m 0,2.3125 c 1.81654,0 3.28125,1.45321 3.28125,3.25 0,1.79681 -1.46471,3.21881 -3.28125,3.21881 -1.81653,0 -3.25,-1.422 -3.25,-3.21881 0,-1.79679 1.43347,-3.25 3.25,-3.25 z m -31.03125,0.71875 0,5.03126 c -1.00314,-0.386 -1.6875,-1.3732 -1.6875,-2.53126 0,-1.15801 0.68436,-2.11398 1.6875,-2.5 z m 62.0625,0 c 1.00314,0.38602 1.6875,1.34199 1.6875,2.5 0,1.15806 -0.68436,2.14526 -1.6875,2.53126 l 0,-5.03126 z M 27.25,1036.8622 l 45.5,0 0,5.1875 -45.5,0 0,-5.1875 z" fill="#000000" fill-opacity="1" fill-rule="evenodd" stroke="none" marker="none" visibility="visible" display="inline" overflow="visible"/></g><text x="0" y="115" fill="#000000" font-size="5px" font-weight="bold" font-family="'Helvetica Neue', Helvetica, Arial-Unicode, Arial, Sans-serif">Created by Artdabana@Design</text><text x="0" y="120" fill="#000000" font-size="5px" font-weight="bold" font-family="'Helvetica Neue', Helvetica, Arial-Unicode, Arial, Sans-serif">from the Noun Project</text></svg>