<svg xmlns="http://www.w3.org/2000/svg" data-name="Layer 1" viewBox="0 0 100 125" x="0px" y="0px" style="color: gray"><title>House</title><path d="M79.707,47.293l-4-4-25-25a1,1,0,0,0-1.414,0L38,29.586V25a1,1,0,0,0-.4-.8l-4-3a1,1,0,0,0-1.2,0l-4,3a1,1,0,0,0-.4.8V39.586l-3.707,3.707-4,4a1,1,0,0,0,1.414,1.414L24,46.414V55a1,1,0,0,0,1,1H38v2H30a1,1,0,0,0-1,1V75H25a1,1,0,0,0-1,1v5a1,1,0,0,0,1,1H75a1,1,0,0,0,1-1V46.414l2.293,2.293a1,1,0,0,0,1.414-1.414ZM30,29h6v2H30Zm3-5.75,3,2.25V27H30V25.5ZM30,33h4.586L30,37.586Zm1,27h7V75H31Zm17-3h3v4a1,1,0,0,0,1,1h3v4a1,1,0,0,0,1,1h4v4a1,1,0,0,0,1,1h4v3H48ZM66,70H62V66a1,1,0,0,0-1-1H57V61a1,1,0,0,0-1-1H53V56a1,1,0,0,0-1-1H48V37h5v7.223a3.63,3.63,0,0,0-2.5,3.4,3.38,3.38,0,0,0,.051.523A1,1,0,0,0,51.54,49H56.96a1.041,1.041,0,0,0,.995-.888A3.211,3.211,0,0,0,58,47.625a3.664,3.664,0,0,0-3-3.552V37h5.586L74,50.414V75H67V71A1,1,0,0,0,66,70ZM54.25,46a1.758,1.758,0,0,1,1.615,1h-3.23A1.758,1.758,0,0,1,54.25,46ZM74,47.586,61.707,35.293A1,1,0,0,0,61,35H47a1,1,0,0,0-1,1V76a1,1,0,0,0,1,1H74v3H26V77H39a1,1,0,0,0,1-1V55a1,1,0,0,0-1-1H26V44.414l3.707-3.707,8-8h0L50,20.414l24,24Z"/><path d="M39,42H33a1,1,0,0,0-1,1v6a1,1,0,0,0,1,1h6a1,1,0,0,0,1-1V43A1,1,0,0,0,39,42Zm-1,6H34V44h4Z"/><path d="M33,65a1,1,0,0,0-1,1v2a1,1,0,0,0,2,0V66A1,1,0,0,0,33,65Z"/></svg>
