<svg xmlns="http://www.w3.org/2000/svg" data-name="Layer 1" viewBox="0 0 100 125" x="0px" y="0px"><title>House</title><path d="M86,53.587,75.707,43.293l-25-25a1,1,0,0,0-1.414,0L38,29.586V25a1,1,0,0,0-.4-.8l-4-3a1,1,0,0,0-1.2,0l-4,3a1,1,0,0,0-.4.8V39.586l-3.707,3.707L14,53.587A1,1,0,0,0,15.413,55L24,46.414V69H21a1,1,0,0,0-1,1v3a1,1,0,0,0,1,1h3v7a1,1,0,0,0,1,1H59a1,1,0,0,0,1-1V54.414l5-5v7.809a3.63,3.63,0,0,0-2.5,3.4,3.268,3.268,0,0,0,.053.531A1,1,0,0,0,63.54,62h5.42a1.018,1.018,0,0,0,.99-.861,3.2,3.2,0,0,0,.05-.514,3.664,3.664,0,0,0-3-3.552V49.414l5,5V81a1,1,0,0,0,1,1h4a1,1,0,0,0,1-1V60.414l1,1A1,1,0,0,0,80.417,60L76,55.586V46.414L84.587,55A1,1,0,0,0,86,53.587ZM30,29h6v2H30Zm3-5.75,3,2.25V27H30V25.5ZM30,33h4.586L30,37.586ZM26,59h4V69H26Zm20,0V69H32V59ZM22,71H48v1H22Zm36,9H56V58.414l2-2Zm9.865-20h-3.23a1.8,1.8,0,0,1,3.23,0ZM76,80H74V56.414l.291.291,0,0,1.7,1.7ZM74,53.586l-7.292-7.292a1,1,0,0,0-1.416,0L51.583,60A1,1,0,0,0,53,61.417l1-1V80H26V74H49a1,1,0,0,0,1-1V70a1,1,0,0,0-1-1H48V58a1,1,0,0,0-1-1H26V44.414l3.707-3.707,8-8,0,0L50,20.414l24,24Z"/><path d="M33,41a1,1,0,0,0-1,1V52a1,1,0,0,0,1,1H54.29a1,1,0,0,0,.733-.32l3.71-4A1,1,0,0,0,59,48V42a1,1,0,0,0-1-1Zm1,2h7v8H34Zm23,4.607L53.854,51H43V43H57Z"/><path d="M43,31v5a1,1,0,0,0,1,1H55a1,1,0,0,0,1-1V31a1,1,0,0,0-1-1H44A1,1,0,0,0,43,31Zm2,1h9v3H45Z"/></svg>
