<svg xmlns="http://www.w3.org/2000/svg" xmlns:xlink="http://www.w3.org/1999/xlink" version="1.1" x="0px" y="0px" viewBox="350 350 100 125" enable-background="new 350 350 100 100" xml:space="preserve"><g><path d="M413.503,413.344h15.045c0.557,0,1.005-0.45,1.005-1.005c0-0.556-0.448-1.006-1.005-1.006h-1.24v-12.948   c0-0.555-0.45-1.005-1.005-1.005h-10.68c-0.557,0-1.005,0.45-1.005,1.005v12.948h-1.115c-0.555,0-1.006,0.45-1.006,1.006   C412.497,412.894,412.948,413.344,413.503,413.344z M416.628,399.39h8.669v3.753h-8.669V399.39z M416.628,405.153h8.669v6.181   h-8.669V405.153z"/><path d="M386.497,411.334h-1.116v-12.948c0-0.555-0.448-1.005-1.005-1.005h-10.679c-0.555,0-1.005,0.45-1.005,1.005v12.948h-1.24   c-0.555,0-1.005,0.45-1.005,1.006c0,0.555,0.45,1.005,1.005,1.005h15.045c0.555,0,1.005-0.45,1.005-1.005   C387.502,411.784,387.052,411.334,386.497,411.334z M383.371,411.334h-8.669v-6.181h8.669V411.334z M383.371,403.143h-8.669v-3.753   h8.669V403.143z"/><path d="M372.906,422.447c-2.64,0-3.647,2.414-3.811,3.69c-0.071,0.551,0.318,1.055,0.869,1.125   c0.043,0.006,0.087,0.009,0.129,0.009c0.498,0,0.931-0.371,0.996-0.878c0.01-0.079,0.266-1.937,1.817-1.937   c1.404,0,1.575,1.555,1.594,1.86c0.029,0.555,0.498,0.983,1.056,0.952c0.554-0.028,0.98-0.501,0.952-1.055   C376.441,424.911,375.602,422.447,372.906,422.447z"/><path d="M427.094,422.447c-2.696,0-3.535,2.464-3.602,3.768c-0.028,0.552,0.395,1.02,0.945,1.051   c0.553,0.033,1.026-0.391,1.062-0.942c0.02-0.312,0.19-1.866,1.595-1.866c1.501,0,1.79,1.744,1.817,1.937   c0.064,0.507,0.497,0.878,0.995,0.878c0.043,0,0.086-0.003,0.13-0.009c0.55-0.07,0.939-0.574,0.868-1.125   C430.74,424.861,429.734,422.447,427.094,422.447z"/><path d="M440.119,426.46c-1.208-1.399-3.007-2.171-5.349-2.298c-0.291-0.699-0.858-1.795-1.833-2.802v-24.975h4.91   c0.555,0,1.005-0.45,1.005-1.005v-7.144c0-0.397-0.234-0.76-0.599-0.918l-7.628-3.359v-8.283h0.979   c0.558,0,1.006-0.449,1.006-1.005v-6.494c0-0.555-0.448-1.005-1.006-1.005h-12.626c-0.555,0-1.005,0.45-1.005,1.005v6.494   c0,0.556,0.45,1.005,1.005,1.005h0.979v3.589L408,374.001l-1.859-0.817l-5.267-2.318c-0.129-0.056-0.265-0.084-0.406-0.084h-0.938   c-0.139,0-0.275,0.028-0.404,0.084l-5.27,2.32l-1.861,0.819l-30.246,13.314c-0.366,0.158-0.601,0.521-0.601,0.919v7.143   c0,0.556,0.45,1.006,1.005,1.006h4.913v24.974c-0.977,1.007-1.543,2.103-1.835,2.802c-2.342,0.127-4.141,0.898-5.349,2.298   c-1.98,2.289-1.556,5.377-1.538,5.507c0.072,0.495,0.496,0.86,0.995,0.86h30.522c0,0,0,0,0.002,0h50.8   c0.498,0,0.922-0.365,0.994-0.86C441.675,431.836,442.099,428.749,440.119,426.46z M419.984,369.182H430.6v4.484h-10.616V369.182z    M428.616,375.677v7.399l-6.649-2.927v-4.473H428.616z M367.064,390.837v3.539h-3.907v-5.483l29.922-13.169l1.861-0.818   l4.802-2.114h0.515l4.798,2.112l1.861,0.818l13.651,6.008c0.003,0.002,0.005,0.002,0.007,0.004l8.65,3.807   c0.002,0.002,0.006,0.002,0.008,0.004l7.61,3.349v5.483h-3.905v-3.539c0-0.402-0.239-0.765-0.607-0.923l-27.019-11.65l-1.867-0.806   l-2.578-1.111c-0.125-0.055-0.262-0.083-0.398-0.083h-0.937c-0.137,0-0.273,0.028-0.398,0.083l-2.581,1.113l-1.87,0.806   l-27.012,11.648C367.302,390.072,367.064,390.434,367.064,390.837z M360.309,430.817L360.309,430.817   c0.038-0.824,0.249-2.078,1.102-3.056c0.933-1.067,2.456-1.609,4.53-1.609c0.45,0,0.846-0.304,0.969-0.738   c0.004-0.016,0.466-1.626,1.841-2.894c1.122-1.038,2.542-1.564,4.225-1.564c4.79,0,6.333,5.003,6.396,5.214   c0.088,0.3,0.312,0.543,0.603,0.655c0.292,0.113,0.621,0.083,0.886-0.08c0.024-0.014,2.27-1.366,4.396-0.477   c1.451,0.607,2.557,2.135,3.296,4.549H360.309z M409.133,430.817h-18.267V399.39h18.267V430.817z M410.138,397.381h-20.276   c-0.555,0-1.005,0.45-1.005,1.005v28.386c-0.78-1.108-1.723-1.896-2.824-2.356c-1.988-0.834-3.964-0.359-5.14,0.099   c-1.057-2.366-3.59-5.567-7.917-5.567c-1.445,0-2.75,0.306-3.901,0.906v-28.354l26.694-11.512l1.869-0.806h0l2.1-0.906h0.523   l2.098,0.904l0,0l1.867,0.806l26.7,11.514v3.873c0,0.004-0.002,0.008-0.002,0.01c0,0.005,0.002,0.006,0.002,0.011v24.461   c-1.153-0.601-2.458-0.906-3.903-0.906c-4.327,0-6.859,3.202-7.917,5.567c-1.176-0.458-3.151-0.933-5.14-0.099   c-1.102,0.461-2.044,1.248-2.824,2.356v-28.386C411.143,397.831,410.693,397.381,410.138,397.381z M411.447,430.817   c0.738-2.406,1.839-3.932,3.284-4.543c2.106-0.893,4.388,0.458,4.408,0.471c0.266,0.163,0.595,0.192,0.887,0.08   c0.291-0.112,0.515-0.355,0.603-0.655c0.017-0.053,1.576-5.214,6.396-5.214c1.683,0,3.104,0.526,4.228,1.563   c1.372,1.269,1.835,2.879,1.839,2.891c0.118,0.438,0.517,0.741,0.969,0.741c2.074,0,3.6,0.543,4.53,1.61   c0.853,0.979,1.063,2.233,1.102,3.056H411.447z"/><circle cx="395.354" cy="415.298" r="1.38"/></g></svg>
