<svg xmlns="http://www.w3.org/2000/svg" xmlns:xlink="http://www.w3.org/1999/xlink" version="1.1" x="0px" y="0px" viewBox="0 0 100 125" style="enable-background:new 0 0 100 100;" xml:space="preserve"><g><path d="M47.7,42.3c-0.6,0-1,0.4-1.1,1l-0.5,13.2c-1.2-2.2-3.3-4.4-6.7-5.5c-0.5-0.2-1.1,0.1-1.3,0.6c-0.2,0.5,0.1,1.1,0.6,1.3   c0.5,0.2,1,0.4,1.5,0.6c-1.3,0.4-2.8,1.3-2.7,2.6c0,0.5,0.3,1.3,1.7,1.9c0.7,0.3,1.5,0.4,2.1,0.4c0.1,0,0.1,0,0.2,0   c0.7,0,1.4-0.3,1.9-0.8c0.2-0.2,0.4-0.5,0.5-0.7c1.5,2.2,1.8,4.6,1.9,5.2l-0.8,23.3c-0.1,1.3-0.6,2-0.8,2.1c-0.6,0-1,0.5-1,1   c0,0.6,0.5,1,1,1c1.5,0,2.7-1.6,2.9-4L48,62.3c0,0,0-0.1,0-0.1c0,0,0-0.1,0-0.1l0.7-18.8C48.7,42.8,48.3,42.3,47.7,42.3z    M42.1,56.2c-0.2,0.1-0.4,0.2-0.6,0.3c-0.6,0-1.4-0.2-1.8-0.5c0.3-0.3,1.1-0.6,1.7-0.7h0c0.2,0,0.5,0.1,0.7,0.2   c0.1,0.1,0.2,0.2,0.2,0.3C42.3,56,42.2,56.1,42.1,56.2z"/><path d="M67.9,23.5c-0.5-0.4-0.7-1-0.7-1.6c0.1-2.4-0.8-4.7-2.5-6.4c-1.7-1.7-4.1-2.6-6.5-2.5c-0.6,0-1.2-0.2-1.7-0.7   c-1.6-1.7-4-2.7-6.4-2.7s-4.7,1-6.4,2.7c-0.4,0.5-1,0.7-1.7,0.7c-2.4-0.1-4.8,0.8-6.5,2.5c-1.7,1.7-2.6,4-2.5,6.4   c0,0.6-0.2,1.2-0.7,1.6c-1.8,1.6-2.8,3.9-2.8,6.3s1,4.7,2.8,6.3c0.5,0.4,0.7,1,0.7,1.6c-0.1,2.4,0.8,4.7,2.5,6.4   c1.6,1.6,3.9,2.5,6.2,2.5c0.1,0,0.2,0,0.3,0c0.6,0,1-0.5,1-1c0-0.6-0.5-1-1.1-1c-1.9,0.1-3.6-0.6-4.9-1.9c-1.3-1.3-2-3-1.9-4.9   c0-1.2-0.4-2.4-1.3-3.2c-1.4-1.3-2.1-3-2.1-4.8c0-1.8,0.8-3.6,2.1-4.8c0.9-0.8,1.4-2,1.3-3.2c-0.1-1.9,0.6-3.6,1.9-4.9   c1.3-1.3,3.1-2,4.9-1.9c1.2,0,2.4-0.4,3.2-1.3c1.3-1.4,3-2.1,4.9-2.1s3.6,0.7,4.9,2.1c0.8,0.9,2,1.4,3.2,1.3   c1.9-0.1,3.6,0.6,4.9,1.9c1.3,1.3,2,3,1.9,4.9c0,1.2,0.4,2.4,1.3,3.2c1.4,1.3,2.1,3,2.1,4.8c0,1.8-0.8,3.6-2.1,4.8   c-0.9,0.8-1.4,2-1.3,3.2c0.1,1.9-0.6,3.6-1.9,4.9c-1.3,1.3-3.1,2-4.9,1.9c-0.6,0-1,0.4-1.1,1c0,0.6,0.4,1,1,1   c2.4,0.1,4.8-0.8,6.5-2.5c1.7-1.7,2.6-4,2.5-6.4c0-0.6,0.2-1.2,0.7-1.6c1.8-1.6,2.8-3.9,2.8-6.3C70.7,27.4,69.7,25.1,67.9,23.5z"/><path d="M61.5,62.1c-0.2,0.1-0.4,0.1-0.6,0.2c0,0,0,0,0,0c0-1.4-0.9-3.9-2.6-3.9c-1.7,0-2.6,2.5-2.6,3.9c0,1.1,0.5,2,1.3,2.5   c-1,0.9-1.7,2-2.3,3l-0.9-24.5c0-0.6-0.5-1-1.1-1c-0.6,0-1,0.5-1,1l1.5,42.3c0.2,2.3,1.4,3.9,2.9,3.9c0.6,0,1-0.5,1-1   c0-0.6-0.5-1-1-1c-0.2,0-0.7-0.7-0.8-2l-0.4-11.8c0-0.1,0-0.1,0-0.2c0-0.2,0.2-2,1.2-4.1c0.2,0.3,0.5,0.7,0.9,0.9   c0.6,0.4,1.8,0.8,2.8,0.8c0.8,0,1.5-0.2,1.9-0.9c0.9-1.4-0.7-3.6-1.9-4.3c-0.2-0.1-0.5-0.3-0.7-0.3c0.8-0.6,1.8-1.2,2.9-1.5   c0.5-0.2,0.8-0.7,0.6-1.3C62.6,62.2,62,62,61.5,62.1z M58.3,60.6c0.3,0.3,0.6,1.2,0.6,1.7c0,0.4-0.3,0.8-0.6,0.8   c-0.3,0-0.6-0.4-0.6-0.8C57.7,61.8,58,60.9,58.3,60.6z M59.9,69.1c-0.4,0-1.3-0.1-1.8-0.5h0c-0.2-0.1-0.4-0.3-0.4-0.5   c0-0.1-0.1-0.3,0-0.4s0.2-0.2,0.4-0.2c0,0,0.1,0,0.1,0c0.2,0,0.4,0.1,0.6,0.2C59.3,67.9,59.8,68.7,59.9,69.1z"/></g></svg>
